<?xml version="1.0" encoding="utf-8"?>
<svg xmlns="http://www.w3.org/2000/svg" style="margin: auto; background: none; display: block; shape-rendering: auto;" width="220" height="71" preserveAspectRatio="xMidYMid">
<style type="text/css">
  text {
    text-anchor: middle; font-size: 48px; opacity: 0;
  }
</style>
<g style="transform-origin: 110px 35.5px; transform: scale(0.657534);">
<g transform="translate(110,35.5)">
  <g transform="translate(0,0)"><g class="path" style="opacity: 1; transform-origin: -133.225px -5.638px; animation: 1.25s linear -0.7425s infinite normal forwards running blink-62252e7c-e431-4c4b-8216-202f1bc68c31;"><path d="M31.17-1.68L31.17-1.68Q24.67 0.73 19.05 0.73L19.05 0.73L19.05 0.73Q12.70 0.73 8.76-2.63L8.76-2.63L8.76-2.63Q4.82-5.99 4.82-13.36L4.82-13.36L4.82-36.79L4.82-36.79Q4.82-42.34 6.39-45.19L6.39-45.19L6.39-45.19Q7.96-48.03 11.17-50.00L11.17-50.00L11.17-50.00Q14.38-51.83 19.05-51.83L19.05-51.83L19.05-51.83Q24.75-51.83 29.35-49.42L29.35-49.42L28.18-46.65L28.18-46.65Q24.02-48.18 20.29-48.18L20.29-48.18L20.29-48.18Q15.84-48.18 12.37-45.99L12.37-45.99L12.37-45.99Q8.91-43.80 8.91-37.45L8.91-37.45L8.91-13.50L8.91-13.50Q8.91-8.47 11.53-5.73L11.53-5.73L11.53-5.73Q14.16-2.99 19.42-2.99L19.42-2.99L19.42-2.99Q24.02-2.99 30.29-5.11L30.29-5.11L31.17-1.68" fill="#4cb9d3" stroke="none" stroke-width="none" transform="translate(-151.22000122070312,19.912001159667977)" style="fill: rgb(76, 185, 211);"></path></g><g class="path" style="opacity: 1; transform-origin: -102.64px 1.732px; animation: 1.25s linear -0.66s infinite normal forwards running blink-62252e7c-e431-4c4b-8216-202f1bc68c31;"><path d="M62.63 0L62.63 0Q54.75 0.80 51.25 0.80L51.25 0.80L51.25 0.80Q43.58 0.80 39.05-2.04L39.05-2.04L39.05-2.04Q34.53-4.89 34.53-12.34L34.53-12.34L34.53-18.40L34.53-18.40Q34.53-25.62 39.57-28.10L39.57-28.10L39.57-28.10Q41.98-29.35 45.70-29.35L45.70-29.35L45.70-29.35Q49.13-29.35 52.63-28.21L52.63-28.21L52.63-28.21Q56.14-27.08 58.55-25.26L58.55-25.26L58.55-25.26Q58.55-29.27 56.21-31.65L56.21-31.65L56.21-31.65Q53.87-34.02 47.23-34.02L47.23-34.02L47.45-37.16L47.45-37.16Q54.46-37.16 57.78-34.93L57.78-34.93L57.78-34.93Q61.10-32.70 61.87-29.64L61.87-29.64L61.87-29.64Q62.63-26.57 62.63-21.75L62.63-21.75L62.63 0zM58.55-22.12L58.55-22.12Q55.55-23.51 52.16-24.53L52.16-24.53L52.16-24.53Q48.76-25.55 45.92-25.55L45.92-25.55L45.92-25.55Q38.54-25.55 38.54-18.18L38.54-18.18L38.54-11.83L38.54-11.83Q38.54-7.08 41.83-4.93L41.83-4.93L41.83-4.93Q45.11-2.77 51.17-2.77L51.17-2.77L51.17-2.77Q54.31-2.77 58.55-3.36L58.55-3.36L58.55-22.12" fill="#4cb9d3" stroke="none" stroke-width="none" transform="translate(-151.22000122070312,19.912001159667977)" style="fill: rgb(145, 224, 153);"></path></g><g class="path" style="opacity: 1; transform-origin: -72.375px 1.297px; animation: 1.25s linear -0.5775s infinite normal forwards running blink-62252e7c-e431-4c4b-8216-202f1bc68c31;"><path d="M69.72 0L69.72-36.57L73.80-36.57L73.58-34.02L73.58-34.02Q77.02-37.23 82.56-37.23L82.56-37.23L82.56-37.23Q84.53-37.23 87.97-36.57L87.97-36.57L86.87-32.85L86.87-32.85Q84.53-33.58 81.98-33.58L81.98-33.58L81.98-33.58Q78.62-33.58 76.21-32.34L76.21-32.34L76.21-32.34Q73.80-31.10 73.80-28.62L73.80-28.62L73.80 0L69.72 0" fill="#4cb9d3" stroke="none" stroke-width="none" transform="translate(-151.22000122070312,19.912001159667977)" style="fill: rgb(236, 247, 122);"></path></g><g class="path" style="opacity: 1; transform-origin: -45.95px 1.737px; animation: 1.25s linear -0.495s infinite normal forwards running blink-62252e7c-e431-4c4b-8216-202f1bc68c31;"><path d="M116.58-2.55L116.58-2.55Q113.95-0.88 110.59 0L110.59 0L110.59 0Q107.24 0.88 103.88 0.88L103.88 0.88L103.88 0.88Q98.48 0.88 95.30-1.79L95.30-1.79L95.30-1.79Q92.13-4.45 92.13-9.78L92.13-9.78L92.13-24.75L92.13-24.75Q92.13-30.66 95.81-33.95L95.81-33.95L95.81-33.95Q99.50-37.23 105.56-37.23L105.56-37.23L105.56-37.23Q111.62-37.23 115.01-33.98L115.01-33.98L115.01-33.98Q118.41-30.73 118.41-24.97L118.41-24.97L118.41-15.48L96.21-14.23L96.21-9.78L96.21-9.78Q96.21-6.28 98.48-4.53L98.48-4.53L98.48-4.53Q100.74-2.77 104.39-2.77L104.39-2.77L104.39-2.77Q109.50-2.77 114.97-5.69L114.97-5.69L116.58-2.55zM114.32-25.48L114.32-25.48Q114.32-30.00 111.47-31.86L111.47-31.86L111.47-31.86Q108.62-33.73 105.48-33.73L105.48-33.73L105.48-33.73Q101.47-33.73 98.84-31.54L98.84-31.54L98.84-31.54Q96.21-29.35 96.21-24.67L96.21-24.67L96.21-18.25L114.32-19.13L114.32-25.48" fill="#4cb9d3" stroke="none" stroke-width="none" transform="translate(-151.22000122070312,19.912001159667977)" style="fill: rgb(242, 95, 87);"></path></g><g class="path" style="opacity: 1; transform-origin: -14.27px 1.737px; animation: 1.25s linear -0.4125s infinite normal forwards running blink-62252e7c-e431-4c4b-8216-202f1bc68c31;"><path d="M148.26-2.55L148.26-2.55Q145.63-0.88 142.28 0L142.28 0L142.28 0Q138.92 0.88 135.56 0.88L135.56 0.88L135.56 0.88Q130.16 0.88 126.98-1.79L126.98-1.79L126.98-1.79Q123.81-4.45 123.81-9.78L123.81-9.78L123.81-24.75L123.81-24.75Q123.81-30.66 127.49-33.95L127.49-33.95L127.49-33.95Q131.18-37.23 137.24-37.23L137.24-37.23L137.24-37.23Q143.30-37.23 146.69-33.98L146.69-33.98L146.69-33.98Q150.09-30.73 150.09-24.97L150.09-24.97L150.09-15.48L127.90-14.23L127.90-9.78L127.90-9.78Q127.90-6.28 130.16-4.53L130.16-4.53L130.16-4.53Q132.42-2.77 136.07-2.77L136.07-2.77L136.07-2.77Q141.18-2.77 146.66-5.69L146.66-5.69L148.26-2.55zM146-25.48L146-25.48Q146-30.00 143.15-31.86L143.15-31.86L143.15-31.86Q140.31-33.73 137.17-33.73L137.17-33.73L137.17-33.73Q133.15-33.73 130.52-31.54L130.52-31.54L130.52-31.54Q127.90-29.35 127.90-24.67L127.90-24.67L127.90-18.25L146-19.13L146-25.48" fill="#4cb9d3" stroke="none" stroke-width="none" transform="translate(-151.22000122070312,19.912001159667977)" style="fill: rgb(254, 149, 140);"></path></g><g class="path" style="opacity: 1; transform-origin: 15.295px 1.297px; animation: 1.25s linear -0.33s infinite normal forwards running blink-62252e7c-e431-4c4b-8216-202f1bc68c31;"><path d="M157.39 0L157.39-36.57L161.48-36.57L161.26-34.02L161.26-34.02Q164.69-37.23 170.24-37.23L170.24-37.23L170.24-37.23Q172.21-37.23 175.64-36.57L175.64-36.57L174.54-32.85L174.54-32.85Q172.21-33.58 169.65-33.58L169.65-33.58L169.65-33.58Q166.29-33.58 163.88-32.34L163.88-32.34L163.88-32.34Q161.48-31.10 161.48-28.62L161.48-28.62L161.48 0L157.39 0" fill="#4cb9d3" stroke="none" stroke-width="none" transform="translate(-151.22000122070312,19.912001159667977)" style="fill: rgb(76, 185, 211);"></path></g><g class="path" style="opacity: 1; transform-origin: 47.56px -5.638px; animation: 1.25s linear -0.2475s infinite normal forwards running blink-62252e7c-e431-4c4b-8216-202f1bc68c31;"><path d="M182.94 0L182.94-51.10L200.90-51.10L200.90-51.10Q207.83-51.10 211.23-46.87L211.23-46.87L211.23-46.87Q214.62-42.63 214.62-35.48L214.62-35.48L214.62-35.48Q214.62-30.88 213.89-27.19L213.89-27.19L213.89-27.19Q213.16-23.51 210.24-20.70L210.24-20.70L210.24-20.70Q207.32-17.88 201.41-17.88L201.41-17.88L187.03-17.88L187.03 0L182.94 0zM201.48-21.90L201.48-21.90Q205.57-21.90 207.58-24.09L207.58-24.09L207.58-24.09Q209.58-26.28 210.06-29.05L210.06-29.05L210.06-29.05Q210.53-31.83 210.53-35.26L210.53-35.26L210.53-35.26Q210.53-41.24 208.05-44.24L208.05-44.24L208.05-44.24Q205.57-47.23 201.19-47.23L201.19-47.23L187.03-47.23L187.03-21.90L201.48-21.90" fill="#4cb9d3" stroke="none" stroke-width="none" transform="translate(-151.22000122070312,19.912001159667977)" style="fill: rgb(145, 224, 153);"></path></g><g class="path" style="opacity: 1; transform-origin: 82.56px 1.732px; animation: 1.25s linear -0.165s infinite normal forwards running blink-62252e7c-e431-4c4b-8216-202f1bc68c31;"><path d="M247.83 0L247.83 0Q239.95 0.80 236.45 0.80L236.45 0.80L236.45 0.80Q228.78 0.80 224.26-2.04L224.26-2.04L224.26-2.04Q219.73-4.89 219.73-12.34L219.73-12.34L219.73-18.40L219.73-18.40Q219.73-25.62 224.77-28.10L224.77-28.10L224.77-28.10Q227.18-29.35 230.90-29.35L230.90-29.35L230.90-29.35Q234.33-29.35 237.83-28.21L237.83-28.21L237.83-28.21Q241.34-27.08 243.75-25.26L243.75-25.26L243.75-25.26Q243.75-29.27 241.41-31.65L241.41-31.65L241.41-31.65Q239.07-34.02 232.43-34.02L232.43-34.02L232.65-37.16L232.65-37.16Q239.66-37.16 242.98-34.93L242.98-34.93L242.98-34.93Q246.30-32.70 247.07-29.64L247.07-29.64L247.07-29.64Q247.83-26.57 247.83-21.75L247.83-21.75L247.83 0zM243.75-22.12L243.75-22.12Q240.75-23.51 237.36-24.53L237.36-24.53L237.36-24.53Q233.97-25.55 231.12-25.55L231.12-25.55L231.12-25.55Q223.75-25.55 223.75-18.18L223.75-18.18L223.75-11.83L223.75-11.83Q223.75-7.08 227.03-4.93L227.03-4.93L227.03-4.93Q230.31-2.77 236.37-2.77L236.37-2.77L236.37-2.77Q239.51-2.77 243.75-3.36L243.75-3.36L243.75-22.12" fill="#4cb9d3" stroke="none" stroke-width="none" transform="translate(-151.22000122070312,19.912001159667977)" style="fill: rgb(236, 247, 122);"></path></g><g class="path" style="opacity: 1; transform-origin: 113.625px 1.662px; animation: 1.25s linear -0.0825s infinite normal forwards running blink-62252e7c-e431-4c4b-8216-202f1bc68c31;"><path d="M276.60-0.44L276.60-0.44Q272.07 0.73 267.84 0.73L267.84 0.73L267.84 0.73Q263.89 0.73 261.27-0.15L261.27-0.15L261.27-0.15Q256.96-1.61 255.03-4.64L255.03-4.64L255.03-4.64Q253.09-7.66 253.09-13.14L253.09-13.14L253.09-22.48L253.09-22.48Q253.09-29.71 256.89-33.47L256.89-33.47L256.89-33.47Q260.68-37.23 266.67-37.23L266.67-37.23L266.67-37.23Q271.41-37.23 276.45-34.89L276.45-34.89L275.28-31.90L275.28-31.90Q271.12-33.58 267.25-33.58L267.25-33.58L267.25-33.58Q262.73-33.58 259.95-30.99L259.95-30.99L259.95-30.99Q257.18-28.40 257.18-22.92L257.18-22.92L257.18-12.34L257.18-12.34Q257.18-7.30 260.21-5.04L260.21-5.04L260.21-5.04Q263.24-2.77 268.27-2.77L268.27-2.77L268.27-2.77Q271.56-2.77 275.72-3.72L275.72-3.72L276.60-0.44" fill="#4cb9d3" stroke="none" stroke-width="none" transform="translate(-151.22000122070312,19.912001159667977)" style="fill: rgb(242, 95, 87);"></path></g><g class="path" style="opacity: 1; transform-origin: 142.9px 1.737px; animation: 1.25s linear 0s infinite normal forwards running blink-62252e7c-e431-4c4b-8216-202f1bc68c31;"><path d="M305.43-2.55L305.43-2.55Q302.80-0.88 299.45 0L299.45 0L299.45 0Q296.09 0.88 292.73 0.88L292.73 0.88L292.73 0.88Q287.33 0.88 284.15-1.79L284.15-1.79L284.15-1.79Q280.98-4.45 280.98-9.78L280.98-9.78L280.98-24.75L280.98-24.75Q280.98-30.66 284.66-33.95L284.66-33.95L284.66-33.95Q288.35-37.23 294.41-37.23L294.41-37.23L294.41-37.23Q300.47-37.23 303.86-33.98L303.86-33.98L303.86-33.98Q307.26-30.73 307.26-24.97L307.26-24.97L307.26-15.48L285.06-14.23L285.06-9.78L285.06-9.78Q285.06-6.28 287.33-4.53L287.33-4.53L287.33-4.53Q289.59-2.77 293.24-2.77L293.24-2.77L293.24-2.77Q298.35-2.77 303.83-5.69L303.83-5.69L305.43-2.55zM303.17-25.48L303.17-25.48Q303.17-30.00 300.32-31.86L300.32-31.86L300.32-31.86Q297.47-33.73 294.34-33.73L294.34-33.73L294.34-33.73Q290.32-33.73 287.69-31.54L287.69-31.54L287.69-31.54Q285.06-29.35 285.06-24.67L285.06-24.67L285.06-18.25L303.17-19.13L303.17-25.48" fill="#4cb9d3" stroke="none" stroke-width="none" transform="translate(-151.22000122070312,19.912001159667977)" style="fill: rgb(254, 149, 140);"></path></g></g>
</g>
</g>
<style id="blink-62252e7c-e431-4c4b-8216-202f1bc68c31" data-anikit="">@keyframes blink-62252e7c-e431-4c4b-8216-202f1bc68c31 {
  0% { opacity: 1; }
  49.75% { opacity: 1; }
  50.25% { opacity: 0; }
  99.5% { opacity: 0; }
  100% { opacity: 1; }
}</style></svg>