<?xml version="1.0" encoding="utf-8"?>
<svg xmlns="http://www.w3.org/2000/svg" style="margin: auto; background: none; display: block; shape-rendering: auto; animation-play-state: running; animation-delay: 0s;" width="281" height="133" preserveAspectRatio="xMidYMid">
<style type="text/css" style="animation-play-state: running; animation-delay: 0s;">
  text {
    text-anchor: middle; font-size: 55px; opacity: 0;
  }
</style>
<g style="transform-origin: 140.5px 66.5px; transform: scale(0.6875); animation-play-state: running; animation-delay: 0s;">
<g transform="translate(140.5,66.5)" style="animation-play-state: running; animation-delay: 0s;">
  <g transform="translate(0,0)" style="animation-play-state: running; animation-delay: 0s;"><g class="path" style="opacity: 1; transform-origin: -161.04px -5.83696px; animation: 1.42857s linear -0.848571s infinite normal forwards running blink-1826f958-ad33-4df5-8c10-fcdc7c16d9a6;"><path d="M45.60-52.80L44.16-46.88L44.16-46.88Q42.16-47.52 39.92-48.04L39.92-48.04L39.92-48.04Q37.68-48.56 35-48.92L35-48.92L35-48.92Q32.32-49.28 29.36-49.28L29.36-49.28L29.36-49.28Q24.56-49.28 21.20-47.20L21.20-47.20L21.20-47.20Q17.84-45.12 15.72-41.88L15.72-41.88L15.72-41.88Q13.60-38.64 12.64-34.64L12.64-34.64L12.64-34.64Q11.68-30.64 11.68-26.72L11.68-26.72L11.68-26.72Q11.68-21.76 13.08-17.72L13.08-17.72L13.08-17.72Q14.48-13.68 16.92-10.84L16.92-10.84L16.92-10.84Q19.36-8 22.60-6.48L22.60-6.48L22.60-6.48Q25.84-4.96 29.44-4.96L29.44-4.96L29.44-4.96Q32.80-4.96 35.60-5.32L35.60-5.32L35.60-5.32Q38.40-5.68 40.40-6.08L40.40-6.08L40.40-6.08Q42.72-6.56 44.56-7.20L44.56-7.20L45.92-1.52L45.92-1.52Q43.76-0.80 41.12-0.24L41.12-0.24L41.12-0.24Q38.88 0.24 35.92 0.64L35.92 0.64L35.92 0.64Q32.96 1.04 29.44 1.04L29.44 1.04L29.44 1.04Q23.12 1.04 18.36-1.04L18.36-1.04L18.36-1.04Q13.60-3.12 10.44-6.84L10.44-6.84L10.44-6.84Q7.28-10.56 5.68-15.64L5.68-15.64L5.68-15.64Q4.08-20.72 4.08-26.80L4.08-26.80L4.08-26.80Q4.08-33.76 6-39.08L6-39.08L6-39.08Q7.92-44.40 11.28-48L11.28-48L11.28-48Q14.64-51.60 19.28-53.44L19.28-53.44L19.28-53.44Q23.92-55.28 29.44-55.28L29.44-55.28L29.44-55.28Q32.80-55.28 35.72-54.92L35.72-54.92L35.72-54.92Q38.64-54.56 41.08-54L41.08-54L41.08-54Q43.52-53.44 45.60-52.80L45.60-52.80" fill="#ffffff" stroke="none" stroke-width="none" transform="translate(-186.0400390625,21.28304180908204)" style="fill: rgb(255, 255, 255); animation-play-state: running; animation-delay: 0s;"></path></g><g class="path" style="opacity: 1; transform-origin: -118.76px 1.28304px; animation: 1.42857s linear -0.754286s infinite normal forwards running blink-1826f958-ad33-4df5-8c10-fcdc7c16d9a6;"><path d="M76.72-9.36L76.72-18.48L76.72-18.48Q75.12-18.40 73.68-18.32L73.68-18.32L73.68-18.32Q72.24-18.24 70.84-18.12L70.84-18.12L70.84-18.12Q69.44-18 68.32-17.84L68.32-17.84L68.32-17.84Q62.56-17.12 60.16-15.32L60.16-15.32L60.16-15.32Q57.76-13.52 57.76-10.16L57.76-10.16L57.76-10.16Q57.76-7.36 59.48-5.96L59.48-5.96L59.48-5.96Q61.20-4.56 64-4.56L64-4.56L64-4.56Q67.84-4.56 70.84-5.88L70.84-5.88L70.84-5.88Q73.84-7.20 76.72-9.36L76.72-9.36zM77.44 0.64L76.64-3.76L76.64-3.76Q72.88-1.60 69.64-0.28L69.64-0.28L69.64-0.28Q66.40 1.04 62.64 1.04L62.64 1.04L62.64 1.04Q57.28 1.04 54.12-1.56L54.12-1.56L54.12-1.56Q50.96-4.16 50.96-10.16L50.96-10.16L50.96-10.16Q50.96-13.28 52.56-15.60L52.56-15.60L52.56-15.60Q54.16-17.92 56.76-19.48L56.76-19.48L56.76-19.48Q59.36-21.04 62.64-21.92L62.64-21.92L62.64-21.92Q65.92-22.80 69.36-23.04L69.36-23.04L69.36-23.04Q70.80-23.20 73.12-23.32L73.12-23.32L73.12-23.32Q75.44-23.44 76.72-23.52L76.72-23.52L76.72-23.52Q76.72-26.32 76.56-28.52L76.56-28.52L76.56-28.52Q76.40-30.72 75.60-32.28L75.60-32.28L75.60-32.28Q74.80-33.84 73.24-34.64L73.24-34.64L73.24-34.64Q71.68-35.44 68.80-35.44L68.80-35.44L68.80-35.44Q66.48-35.44 64.32-35.16L64.32-35.16L64.32-35.16Q62.16-34.88 60.48-34.56L60.48-34.56L60.48-34.56Q58.48-34.16 56.80-33.68L56.80-33.68L55.52-39.20L55.52-39.20Q57.52-39.68 59.84-40.08L59.84-40.08L59.84-40.08Q61.84-40.48 64.48-40.76L64.48-40.76L64.48-40.76Q67.12-41.04 70.16-41.04L70.16-41.04L70.16-41.04Q74.24-41.04 76.76-39.84L76.76-39.84L76.76-39.84Q79.28-38.64 80.68-36.60L80.68-36.60L80.68-36.60Q82.08-34.56 82.60-31.96L82.60-31.96L82.60-31.96Q83.12-29.36 83.12-26.48L83.12-26.48L83.12-7.28L83.12-7.28Q83.12-6.16 83.16-4.92L83.16-4.92L83.16-4.92Q83.20-3.68 83.32-2.48L83.32-2.48L83.32-2.48Q83.44-1.28 83.60 0L83.60 0L77.44 0.64" fill="#ffffff" stroke="none" stroke-width="none" transform="translate(-186.0400390625,21.28304180908204)" style="fill: rgb(255, 255, 255); animation-play-state: running; animation-delay: 0s;"></path></g><g class="path" style="opacity: 1; transform-origin: -81.84px 0.757326px; animation: 1.42857s linear -0.66s infinite normal forwards running blink-1826f958-ad33-4df5-8c10-fcdc7c16d9a6;"><path d="M94.48 0L94.48-33.76L94.48-33.76Q94.48-35.60 94.08-39.52L94.08-39.52L100-40.32L100.64-34.48L100.72-34.48L100.72-34.48Q102.16-36.32 103.52-37.68L103.52-37.68L103.52-37.68Q104.88-39.04 106.36-40.04L106.36-40.04L106.36-40.04Q107.84-41.04 109.20-41.04L109.20-41.04L109.20-41.04Q111.04-41.12 114.32-40.64L114.32-40.64L112.88-34.48L112.88-34.48Q110.24-34.96 109.20-34.88L109.20-34.88L109.20-34.88Q107.84-34.88 106.32-33.60L106.32-33.60L106.32-33.60Q104.80-32.32 103.68-30.88L103.68-30.88L103.68-30.88Q102.24-29.12 100.88-26.88L100.88-26.88L100.88 0L94.48 0" fill="#ffffff" stroke="none" stroke-width="none" transform="translate(-186.0400390625,21.28304180908204)" style="fill: rgb(255, 255, 255); animation-play-state: running; animation-delay: 0s;"></path></g><g class="path" style="opacity: 1; transform-origin: -51.12px 1.28304px; animation: 1.42857s linear -0.565714s infinite normal forwards running blink-1826f958-ad33-4df5-8c10-fcdc7c16d9a6;"><path d="M148.72-6.32L149.92-0.96L149.92-0.96Q148.08-0.40 146.12 0L146.12 0L146.12 0Q144.16 0.40 141.80 0.72L141.80 0.72L141.80 0.72Q139.44 1.04 136.88 1.04L136.88 1.04L136.88 1.04Q132.88 1.04 129.44-0.08L129.44-0.08L129.44-0.08Q126.00-1.20 123.44-3.68L123.44-3.68L123.44-3.68Q120.88-6.16 119.40-10.12L119.40-10.12L119.40-10.12Q117.92-14.08 117.92-19.84L117.92-19.84L117.92-19.84Q117.92-25.04 119.36-29L119.36-29L119.36-29Q120.80-32.96 123.32-35.64L123.32-35.64L123.32-35.64Q125.84-38.32 129.24-39.68L129.24-39.68L129.24-39.68Q132.64-41.04 136.64-41.04L136.64-41.04L136.64-41.04Q140.56-41.04 143.44-39.52L143.44-39.52L143.44-39.52Q146.32-38 148.20-35.40L148.20-35.40L148.20-35.40Q150.08-32.80 151-29.32L151-29.32L151-29.32Q151.92-25.84 151.92-22L151.92-22L150.72-18.48L124.88-18.48L124.88-18.48Q124.88-16 125.52-13.52L125.52-13.52L125.52-13.52Q126.16-11.04 127.72-9.04L127.72-9.04L127.72-9.04Q129.28-7.04 131.80-5.80L131.80-5.80L131.80-5.80Q134.32-4.56 138.08-4.56L138.08-4.56L138.08-4.56Q140.48-4.56 142.48-4.84L142.48-4.84L142.48-4.84Q144.48-5.12 145.96-5.48L145.96-5.48L145.96-5.48Q147.44-5.84 148.72-6.32L148.72-6.32zM125.12-23.60L145.28-23.60L145.28-23.60Q145.28-24.16 145.04-26.08L145.04-26.08L145.04-26.08Q144.80-28 143.92-30.08L143.92-30.08L143.92-30.08Q143.04-32.16 141.20-33.80L141.20-33.80L141.20-33.80Q139.36-35.44 136.32-35.44L136.32-35.44L136.32-35.44Q132.96-35.44 130.80-34.04L130.80-34.04L130.80-34.04Q128.64-32.64 127.36-30.72L127.36-30.72L127.36-30.72Q126.08-28.80 125.60-26.80L125.60-26.80L125.60-26.80Q125.12-24.80 125.12-23.60L125.12-23.60" fill="#ffffff" stroke="none" stroke-width="none" transform="translate(-186.0400390625,21.28304180908204)" style="fill: rgb(255, 255, 255); animation-play-state: running; animation-delay: 0s;"></path></g><g class="path" style="opacity: 1; transform-origin: -10.64px 1.28304px; animation: 1.42857s linear -0.471429s infinite normal forwards running blink-1826f958-ad33-4df5-8c10-fcdc7c16d9a6;"><path d="M189.20-6.32L190.40-0.96L190.40-0.96Q188.56-0.40 186.60 0L186.60 0L186.60 0Q184.64 0.40 182.28 0.72L182.28 0.72L182.28 0.72Q179.92 1.04 177.36 1.04L177.36 1.04L177.36 1.04Q173.36 1.04 169.92-0.08L169.92-0.08L169.92-0.08Q166.48-1.20 163.92-3.68L163.92-3.68L163.92-3.68Q161.36-6.16 159.88-10.12L159.88-10.12L159.88-10.12Q158.40-14.08 158.40-19.84L158.40-19.84L158.40-19.84Q158.40-25.04 159.84-29L159.84-29L159.84-29Q161.28-32.96 163.80-35.64L163.80-35.64L163.80-35.64Q166.32-38.32 169.72-39.68L169.72-39.68L169.72-39.68Q173.12-41.04 177.12-41.04L177.12-41.04L177.12-41.04Q181.04-41.04 183.92-39.52L183.92-39.52L183.92-39.52Q186.80-38 188.68-35.40L188.68-35.40L188.68-35.40Q190.56-32.80 191.48-29.32L191.48-29.32L191.48-29.32Q192.40-25.84 192.40-22L192.40-22L191.20-18.48L165.36-18.48L165.36-18.48Q165.36-16 166-13.52L166-13.52L166-13.52Q166.64-11.04 168.20-9.04L168.20-9.04L168.20-9.04Q169.76-7.04 172.28-5.80L172.28-5.80L172.28-5.80Q174.80-4.56 178.56-4.56L178.56-4.56L178.56-4.56Q180.96-4.56 182.96-4.84L182.96-4.84L182.96-4.84Q184.96-5.12 186.44-5.48L186.44-5.48L186.44-5.48Q187.92-5.84 189.20-6.32L189.20-6.32zM165.60-23.60L185.76-23.60L185.76-23.60Q185.76-24.16 185.52-26.08L185.52-26.08L185.52-26.08Q185.28-28 184.40-30.08L184.40-30.08L184.40-30.08Q183.52-32.16 181.68-33.80L181.68-33.80L181.68-33.80Q179.84-35.44 176.80-35.44L176.80-35.44L176.80-35.44Q173.44-35.44 171.28-34.04L171.28-34.04L171.28-34.04Q169.12-32.64 167.84-30.72L167.84-30.72L167.84-30.72Q166.56-28.80 166.08-26.80L166.08-26.80L166.08-26.80Q165.60-24.80 165.60-23.60L165.60-23.60" fill="#ffffff" stroke="none" stroke-width="none" transform="translate(-186.0400390625,21.28304180908204)" style="fill: rgb(255, 255, 255); animation-play-state: running; animation-delay: 0s;"></path></g><g class="path" style="opacity: 1; transform-origin: 24.88px 0.757326px; animation: 1.42857s linear -0.377143s infinite normal forwards running blink-1826f958-ad33-4df5-8c10-fcdc7c16d9a6;"><path d="M201.20 0L201.20-33.76L201.20-33.76Q201.20-35.60 200.80-39.52L200.80-39.52L206.72-40.32L207.36-34.48L207.44-34.48L207.44-34.48Q208.88-36.32 210.24-37.68L210.24-37.68L210.24-37.68Q211.60-39.04 213.08-40.04L213.08-40.04L213.08-40.04Q214.56-41.04 215.92-41.04L215.92-41.04L215.92-41.04Q217.76-41.12 221.04-40.64L221.04-40.64L219.60-34.48L219.60-34.48Q216.96-34.96 215.92-34.88L215.92-34.88L215.92-34.88Q214.56-34.88 213.04-33.60L213.04-33.60L213.04-33.60Q211.52-32.32 210.40-30.88L210.40-30.88L210.40-30.88Q208.96-29.12 207.60-26.88L207.60-26.88L207.60 0L201.20 0" fill="#ffffff" stroke="none" stroke-width="none" transform="translate(-186.0400390625,21.28304180908204)" style="fill: rgb(255, 255, 255); animation-play-state: running; animation-delay: 0s;"></path></g><g class="path" style="opacity: 1; transform-origin: 59.4px -5.99696px; animation: 1.42857s linear -0.282857s infinite normal forwards running blink-1826f958-ad33-4df5-8c10-fcdc7c16d9a6;"><path d="M228.96 0L228.96-54.56L241.52-54.56L241.52-54.56Q251.92-54.56 256.92-50.88L256.92-50.88L256.92-50.88Q261.92-47.20 261.92-38.48L261.92-38.48L261.92-38.48Q261.92-33.68 260.08-30.48L260.08-30.48L260.08-30.48Q258.24-27.28 255.48-25.32L255.48-25.32L255.48-25.32Q252.72-23.36 249.52-22.52L249.52-22.52L249.52-22.52Q246.32-21.68 243.60-21.68L243.60-21.68L235.68-21.68L235.68 0L228.96 0zM235.68-48.56L235.68-27.68L243.04-27.68L243.04-27.68Q245.76-27.68 247.96-28.20L247.96-28.20L247.96-28.20Q250.16-28.72 251.76-29.96L251.76-29.96L251.76-29.96Q253.36-31.20 254.24-33.32L254.24-33.32L254.24-33.32Q255.12-35.44 255.12-38.64L255.12-38.64L255.12-38.64Q255.12-41.84 254.20-43.80L254.20-43.80L254.20-43.80Q253.28-45.76 251.48-46.80L251.48-46.80L251.48-46.80Q249.68-47.84 246.96-48.20L246.96-48.20L246.96-48.20Q244.24-48.56 240.64-48.56L240.64-48.56L235.68-48.56" fill="#ffffff" stroke="none" stroke-width="none" transform="translate(-186.0400390625,21.28304180908204)" style="fill: rgb(255, 255, 255); animation-play-state: running; animation-delay: 0s;"></path></g><g class="path" style="opacity: 1; transform-origin: 97.24px 1.28304px; animation: 1.42857s linear -0.188571s infinite normal forwards running blink-1826f958-ad33-4df5-8c10-fcdc7c16d9a6;"><path d="M292.72-9.36L292.72-18.48L292.72-18.48Q291.12-18.40 289.68-18.32L289.68-18.32L289.68-18.32Q288.24-18.24 286.84-18.12L286.84-18.12L286.84-18.12Q285.44-18 284.32-17.84L284.32-17.84L284.32-17.84Q278.56-17.12 276.16-15.32L276.16-15.32L276.16-15.32Q273.76-13.52 273.76-10.16L273.76-10.16L273.76-10.16Q273.76-7.36 275.48-5.96L275.48-5.96L275.48-5.96Q277.20-4.56 280-4.56L280-4.56L280-4.56Q283.84-4.56 286.84-5.88L286.84-5.88L286.84-5.88Q289.84-7.20 292.72-9.36L292.72-9.36zM293.44 0.64L292.64-3.76L292.64-3.76Q288.88-1.60 285.64-0.28L285.64-0.28L285.64-0.28Q282.40 1.04 278.64 1.04L278.64 1.04L278.64 1.04Q273.28 1.04 270.12-1.56L270.12-1.56L270.12-1.56Q266.96-4.16 266.96-10.16L266.96-10.16L266.96-10.16Q266.96-13.28 268.56-15.60L268.56-15.60L268.56-15.60Q270.16-17.92 272.76-19.48L272.76-19.48L272.76-19.48Q275.36-21.04 278.64-21.92L278.64-21.92L278.64-21.92Q281.92-22.80 285.36-23.04L285.36-23.04L285.36-23.04Q286.80-23.20 289.12-23.32L289.12-23.32L289.12-23.32Q291.44-23.44 292.72-23.52L292.72-23.52L292.72-23.52Q292.72-26.32 292.56-28.52L292.56-28.52L292.56-28.52Q292.40-30.72 291.60-32.28L291.60-32.28L291.60-32.28Q290.80-33.84 289.24-34.64L289.24-34.64L289.24-34.64Q287.68-35.44 284.80-35.44L284.80-35.44L284.80-35.44Q282.48-35.44 280.32-35.16L280.32-35.16L280.32-35.16Q278.16-34.88 276.48-34.56L276.48-34.56L276.48-34.56Q274.48-34.16 272.80-33.68L272.80-33.68L271.52-39.20L271.52-39.20Q273.52-39.68 275.84-40.08L275.84-40.08L275.84-40.08Q277.84-40.48 280.48-40.76L280.48-40.76L280.48-40.76Q283.12-41.04 286.16-41.04L286.16-41.04L286.16-41.04Q290.24-41.04 292.76-39.84L292.76-39.84L292.76-39.84Q295.28-38.64 296.68-36.60L296.68-36.60L296.68-36.60Q298.08-34.56 298.60-31.96L298.60-31.96L298.60-31.96Q299.12-29.36 299.12-26.48L299.12-26.48L299.12-7.28L299.12-7.28Q299.12-6.16 299.16-4.92L299.16-4.92L299.16-4.92Q299.20-3.68 299.32-2.48L299.32-2.48L299.32-2.48Q299.44-1.28 299.60 0L299.60 0L293.44 0.64" fill="#ffffff" stroke="none" stroke-width="none" transform="translate(-186.0400390625,21.28304180908204)" style="fill: rgb(255, 255, 255); animation-play-state: running; animation-delay: 0s;"></path></g><g class="path" style="opacity: 1; transform-origin: 136.8px 1.28304px; animation: 1.42857s linear -0.0942857s infinite normal forwards running blink-1826f958-ad33-4df5-8c10-fcdc7c16d9a6;"><path d="M336.64-39.76L335.36-34.40L335.36-34.40Q334-34.72 331.60-35.08L331.60-35.08L331.60-35.08Q329.20-35.44 326.72-35.44L326.72-35.44L326.72-35.44Q323.12-35.44 320.84-34L320.84-34L320.84-34Q318.56-32.56 317.28-30.28L317.28-30.28L317.28-30.28Q316-28 315.52-25.24L315.52-25.24L315.52-25.24Q315.04-22.48 315.04-19.84L315.04-19.84L315.04-19.84Q315.04-15.76 316.08-12.84L316.08-12.84L316.08-12.84Q317.12-9.92 318.84-8.08L318.84-8.08L318.84-8.08Q320.56-6.24 322.80-5.40L322.80-5.40L322.80-5.40Q325.04-4.56 327.52-4.56L327.52-4.56L327.52-4.56Q329.20-4.56 330.76-4.76L330.76-4.76L330.76-4.76Q332.32-4.96 333.64-5.24L333.64-5.24L333.64-5.24Q334.96-5.52 336.16-5.92L336.16-5.92L337.44-0.56L337.44-0.56Q335.76-0.08 334.32 0.24L334.32 0.24L334.32 0.24Q332.88 0.56 330.92 0.80L330.92 0.80L330.92 0.80Q328.96 1.04 326.72 1.04L326.72 1.04L326.72 1.04Q322.32 1.04 318.88-0.08L318.88-0.08L318.88-0.08Q315.44-1.20 313.08-3.68L313.08-3.68L313.08-3.68Q310.72-6.16 309.48-10.16L309.48-10.16L309.48-10.16Q308.24-14.16 308.24-19.92L308.24-19.92L308.24-19.92Q308.24-25.52 309.80-29.56L309.80-29.56L309.80-29.56Q311.36-33.60 313.92-36.12L313.92-36.12L313.92-36.12Q316.48-38.64 319.80-39.84L319.80-39.84L319.80-39.84Q323.12-41.04 326.72-41.04L326.72-41.04L326.72-41.04Q328.64-41.04 330.44-40.84L330.44-40.84L330.44-40.84Q332.24-40.64 333.60-40.40L333.60-40.40L333.60-40.40Q335.20-40.08 336.64-39.76L336.64-39.76" fill="#ffffff" stroke="none" stroke-width="none" transform="translate(-186.0400390625,21.28304180908204)" style="fill: rgb(255, 255, 255); animation-play-state: running; animation-delay: 0s;"></path></g><g class="path" style="opacity: 1; transform-origin: 173.12px 1.28304px; animation: 1.42857s linear 0s infinite normal forwards running blink-1826f958-ad33-4df5-8c10-fcdc7c16d9a6;"><path d="M372.96-6.32L374.16-0.96L374.16-0.96Q372.32-0.40 370.36 0L370.36 0L370.36 0Q368.40 0.40 366.04 0.72L366.04 0.72L366.04 0.72Q363.68 1.04 361.12 1.04L361.12 1.04L361.12 1.04Q357.12 1.04 353.68-0.08L353.68-0.08L353.68-0.08Q350.24-1.20 347.68-3.68L347.68-3.68L347.68-3.68Q345.12-6.16 343.64-10.12L343.64-10.12L343.64-10.12Q342.16-14.08 342.16-19.84L342.16-19.84L342.16-19.84Q342.16-25.04 343.60-29L343.60-29L343.60-29Q345.04-32.96 347.56-35.64L347.56-35.64L347.56-35.64Q350.08-38.32 353.48-39.68L353.48-39.68L353.48-39.68Q356.88-41.04 360.88-41.04L360.88-41.04L360.88-41.04Q364.80-41.04 367.68-39.52L367.68-39.52L367.68-39.52Q370.56-38 372.44-35.40L372.44-35.40L372.44-35.40Q374.32-32.80 375.24-29.32L375.24-29.32L375.24-29.32Q376.16-25.84 376.16-22L376.16-22L374.96-18.48L349.12-18.48L349.12-18.48Q349.12-16 349.76-13.52L349.76-13.52L349.76-13.52Q350.40-11.04 351.96-9.04L351.96-9.04L351.96-9.04Q353.52-7.04 356.04-5.80L356.04-5.80L356.04-5.80Q358.56-4.56 362.32-4.56L362.32-4.56L362.32-4.56Q364.72-4.56 366.72-4.84L366.72-4.84L366.72-4.84Q368.72-5.12 370.20-5.48L370.20-5.48L370.20-5.48Q371.68-5.84 372.96-6.32L372.96-6.32zM349.36-23.60L369.52-23.60L369.52-23.60Q369.52-24.16 369.28-26.08L369.28-26.08L369.28-26.08Q369.04-28 368.16-30.08L368.16-30.08L368.16-30.08Q367.28-32.16 365.44-33.80L365.44-33.80L365.44-33.80Q363.60-35.44 360.56-35.44L360.56-35.44L360.56-35.44Q357.20-35.44 355.04-34.04L355.04-34.04L355.04-34.04Q352.88-32.64 351.60-30.72L351.60-30.72L351.60-30.72Q350.32-28.80 349.84-26.80L349.84-26.80L349.84-26.80Q349.36-24.80 349.36-23.60L349.36-23.60" fill="#ffffff" stroke="none" stroke-width="none" transform="translate(-186.0400390625,21.28304180908204)" style="fill: rgb(255, 255, 255); animation-play-state: running; animation-delay: 0s;"></path></g></g>
</g>
</g>
<style id="blink-1826f958-ad33-4df5-8c10-fcdc7c16d9a6" data-anikit="">@keyframes blink-1826f958-ad33-4df5-8c10-fcdc7c16d9a6 {
  0% { opacity: 1; }
  49.75% { opacity: 1; }
  50.25% { opacity: 0; }
  99.5% { opacity: 0; }
  100% { opacity: 1; }
}</style></svg>