<?xml version="1.0" encoding="utf-8"?>
<svg xmlns="http://www.w3.org/2000/svg" style="margin: auto; background: none; display: block; shape-rendering: auto;" width="280" height="84" preserveAspectRatio="xMidYMid">
<style type="text/css">
  text {
    text-anchor: middle; font-size: 54px; opacity: 0;
  }
</style>
<g style="transform-origin:140px 42px;transform:scale(1)">
<g transform="translate(140,42)">
  <g transform="translate(0,0)"><g class="path" style="opacity: 1; transform-origin: -98.555px -4.17082px; animation: 2.27273s linear -1.35s infinite normal forwards running blink-eaacc4c6-3dcd-4a4a-9dea-aa04aecc29ea;"><path d="M23.06-1.24L23.06-1.24Q18.25 0.54 14.09 0.54L14.09 0.54L14.09 0.54Q9.40 0.54 6.48-1.94L6.48-1.94L6.48-1.94Q3.56-4.43 3.56-9.88L3.56-9.88L3.56-27.22L3.56-27.22Q3.56-31.32 4.72-33.43L4.72-33.43L4.72-33.43Q5.89-35.53 8.26-36.99L8.26-36.99L8.26-36.99Q10.64-38.34 14.09-38.34L14.09-38.34L14.09-38.34Q18.31-38.34 21.71-36.56L21.71-36.56L20.84-34.51L20.84-34.51Q17.77-35.64 15.01-35.64L15.01-35.64L15.01-35.64Q11.72-35.64 9.15-34.02L9.15-34.02L9.15-34.02Q6.59-32.40 6.59-27.70L6.59-27.70L6.59-9.99L6.59-9.99Q6.59-6.26 8.53-4.24L8.53-4.24L8.53-4.24Q10.48-2.21 14.36-2.21L14.36-2.21L14.36-2.21Q17.77-2.21 22.41-3.78L22.41-3.78L23.06-1.24" fill="#8cd0e5" stroke="none" stroke-width="none" transform="translate(-111.86502075195312,14.729178283691414)" style="fill: rgb(140, 208, 229);"></path></g><g class="path" style="opacity: 1; transform-origin: -75.93px 1.27918px; animation: 2.27273s linear -1.2s infinite normal forwards running blink-eaacc4c6-3dcd-4a4a-9dea-aa04aecc29ea;"><path d="M46.33 0L46.33 0Q40.50 0.59 37.91 0.59L37.91 0.59L37.91 0.59Q32.24 0.59 28.89-1.51L28.89-1.51L28.89-1.51Q25.54-3.62 25.54-9.13L25.54-9.13L25.54-13.61L25.54-13.61Q25.54-18.95 29.27-20.79L29.27-20.79L29.27-20.79Q31.05-21.71 33.80-21.71L33.80-21.71L33.80-21.71Q36.34-21.71 38.93-20.87L38.93-20.87L38.93-20.87Q41.53-20.03 43.31-18.68L43.31-18.68L43.31-18.68Q43.31-21.65 41.58-23.41L41.58-23.41L41.58-23.41Q39.85-25.16 34.94-25.16L34.94-25.16L35.10-27.49L35.10-27.49Q40.28-27.49 42.74-25.84L42.74-25.84L42.74-25.84Q45.20-24.19 45.77-21.92L45.77-21.92L45.77-21.92Q46.33-19.66 46.33-16.09L46.33-16.09L46.33 0zM43.31-16.36L43.31-16.36Q41.09-17.39 38.58-18.14L38.58-18.14L38.58-18.14Q36.07-18.90 33.97-18.90L33.97-18.90L33.97-18.90Q28.51-18.90 28.51-13.45L28.51-13.45L28.51-8.75L28.51-8.75Q28.51-5.24 30.94-3.65L30.94-3.65L30.94-3.65Q33.37-2.05 37.85-2.05L37.85-2.05L37.85-2.05Q40.18-2.05 43.31-2.48L43.31-2.48L43.31-16.36" fill="#8cd0e5" stroke="none" stroke-width="none" transform="translate(-111.86502075195312,14.729178283691414)" style="fill: rgb(255, 246, 177);"></path></g><g class="path" style="opacity: 1; transform-origin: -53.545px 0.959178px; animation: 2.27273s linear -1.05s infinite normal forwards running blink-eaacc4c6-3dcd-4a4a-9dea-aa04aecc29ea;"><path d="M51.57 0L51.57-27.05L54.59-27.05L54.43-25.16L54.43-25.16Q56.97-27.54 61.07-27.54L61.07-27.54L61.07-27.54Q62.53-27.54 65.07-27.05L65.07-27.05L64.26-24.30L64.26-24.30Q62.53-24.84 60.64-24.84L60.64-24.84L60.64-24.84Q58.16-24.84 56.38-23.92L56.38-23.92L56.38-23.92Q54.59-23.00 54.59-21.17L54.59-21.17L54.59 0L51.57 0" fill="#8cd0e5" stroke="none" stroke-width="none" transform="translate(-111.86502075195312,14.729178283691414)" style="fill: rgb(130, 107, 136);"></path></g><g class="path" style="opacity: 1; transform-origin: -33.995px 1.28418px; animation: 2.27273s linear -0.9s infinite normal forwards running blink-eaacc4c6-3dcd-4a4a-9dea-aa04aecc29ea;"><path d="M86.24-1.89L86.24-1.89Q84.29-0.65 81.81 0L81.81 0L81.81 0Q79.33 0.65 76.84 0.65L76.84 0.65L76.84 0.65Q72.85 0.65 70.50-1.32L70.50-1.32L70.50-1.32Q68.15-3.29 68.15-7.24L68.15-7.24L68.15-18.31L68.15-18.31Q68.15-22.68 70.88-25.11L70.88-25.11L70.88-25.11Q73.60-27.54 78.08-27.54L78.08-27.54L78.08-27.54Q82.57-27.54 85.08-25.14L85.08-25.14L85.08-25.14Q87.59-22.73 87.59-18.47L87.59-18.47L87.59-11.45L71.17-10.53L71.17-7.24L71.17-7.24Q71.17-4.64 72.85-3.35L72.85-3.35L72.85-3.35Q74.52-2.05 77.22-2.05L77.22-2.05L77.22-2.05Q81-2.05 85.05-4.21L85.05-4.21L86.24-1.89zM84.56-18.85L84.56-18.85Q84.56-22.19 82.46-23.57L82.46-23.57L82.46-23.57Q80.35-24.95 78.03-24.95L78.03-24.95L78.03-24.95Q75.06-24.95 73.12-23.33L73.12-23.33L73.12-23.33Q71.17-21.71 71.17-18.25L71.17-18.25L71.17-13.50L84.56-14.15L84.56-18.85" fill="#8cd0e5" stroke="none" stroke-width="none" transform="translate(-111.86502075195312,14.729178283691414)" style="fill: rgb(222, 120, 106);"></path></g><g class="path" style="opacity: 1; transform-origin: -10.565px 1.28418px; animation: 2.27273s linear -0.75s infinite normal forwards running blink-eaacc4c6-3dcd-4a4a-9dea-aa04aecc29ea;"><path d="M109.67-1.89L109.67-1.89Q107.73-0.65 105.25 0L105.25 0L105.25 0Q102.76 0.65 100.28 0.65L100.28 0.65L100.28 0.65Q96.28 0.65 93.93-1.32L93.93-1.32L93.93-1.32Q91.58-3.29 91.58-7.24L91.58-7.24L91.58-18.31L91.58-18.31Q91.58-22.68 94.31-25.11L94.31-25.11L94.31-25.11Q97.04-27.54 101.52-27.54L101.52-27.54L101.52-27.54Q106.00-27.54 108.51-25.14L108.51-25.14L108.51-25.14Q111.02-22.73 111.02-18.47L111.02-18.47L111.02-11.45L94.61-10.53L94.61-7.24L94.61-7.24Q94.61-4.64 96.28-3.35L96.28-3.35L96.28-3.35Q97.96-2.05 100.66-2.05L100.66-2.05L100.66-2.05Q104.44-2.05 108.49-4.21L108.49-4.21L109.67-1.89zM108.00-18.85L108.00-18.85Q108.00-22.19 105.89-23.57L105.89-23.57L105.89-23.57Q103.79-24.95 101.47-24.95L101.47-24.95L101.47-24.95Q98.50-24.95 96.55-23.33L96.55-23.33L96.55-23.33Q94.61-21.71 94.61-18.25L94.61-18.25L94.61-13.50L108.00-14.15L108.00-18.85" fill="#8cd0e5" stroke="none" stroke-width="none" transform="translate(-111.86502075195312,14.729178283691414)" style="fill: rgb(248, 185, 118);"></path></g><g class="path" style="opacity: 1; transform-origin: 11.305px 0.959178px; animation: 2.27273s linear -0.6s infinite normal forwards running blink-eaacc4c6-3dcd-4a4a-9dea-aa04aecc29ea;"><path d="M116.42 0L116.42-27.05L119.45-27.05L119.29-25.16L119.29-25.16Q121.82-27.54 125.93-27.54L125.93-27.54L125.93-27.54Q127.39-27.54 129.92-27.05L129.92-27.05L129.11-24.30L129.11-24.30Q127.39-24.84 125.50-24.84L125.50-24.84L125.50-24.84Q123.01-24.84 121.23-23.92L121.23-23.92L121.23-23.92Q119.45-23.00 119.45-21.17L119.45-21.17L119.45 0L116.42 0" fill="#8cd0e5" stroke="none" stroke-width="none" transform="translate(-111.86502075195312,14.729178283691414)" style="fill: rgb(252, 221, 201);"></path></g><g class="path" style="opacity: 1; transform-origin: 35.175px -4.17082px; animation: 2.27273s linear -0.45s infinite normal forwards running blink-eaacc4c6-3dcd-4a4a-9dea-aa04aecc29ea;"><path d="M135.32 0L135.32-37.80L148.61-37.80L148.61-37.80Q153.74-37.80 156.25-34.67L156.25-34.67L156.25-34.67Q158.76-31.54 158.76-26.24L158.76-26.24L158.76-26.24Q158.76-22.84 158.22-20.11L158.22-20.11L158.22-20.11Q157.68-17.39 155.52-15.31L155.52-15.31L155.52-15.31Q153.36-13.23 148.99-13.23L148.99-13.23L138.35-13.23L138.35 0L135.32 0zM149.04-16.20L149.04-16.20Q152.06-16.20 153.55-17.82L153.55-17.82L153.55-17.82Q155.03-19.44 155.38-21.49L155.38-21.49L155.38-21.49Q155.74-23.54 155.74-26.08L155.74-26.08L155.74-26.08Q155.74-30.51 153.90-32.72L153.90-32.72L153.90-32.72Q152.06-34.94 148.82-34.94L148.82-34.94L138.35-34.94L138.35-16.20L149.04-16.20" fill="#8cd0e5" stroke="none" stroke-width="none" transform="translate(-111.86502075195312,14.729178283691414)" style="fill: rgb(140, 208, 229);"></path></g><g class="path" style="opacity: 1; transform-origin: 61.07px 1.27918px; animation: 2.27273s linear -0.3s infinite normal forwards running blink-eaacc4c6-3dcd-4a4a-9dea-aa04aecc29ea;"><path d="M183.33 0L183.33 0Q177.50 0.59 174.91 0.59L174.91 0.59L174.91 0.59Q169.24 0.59 165.89-1.51L165.89-1.51L165.89-1.51Q162.54-3.62 162.54-9.13L162.54-9.13L162.54-13.61L162.54-13.61Q162.54-18.95 166.27-20.79L166.27-20.79L166.27-20.79Q168.05-21.71 170.80-21.71L170.80-21.71L170.80-21.71Q173.34-21.71 175.93-20.87L175.93-20.87L175.93-20.87Q178.52-20.03 180.31-18.68L180.31-18.68L180.31-18.68Q180.31-21.65 178.58-23.41L178.58-23.41L178.58-23.41Q176.85-25.16 171.94-25.16L171.94-25.16L172.10-27.49L172.10-27.49Q177.28-27.49 179.74-25.84L179.74-25.84L179.74-25.84Q182.20-24.19 182.76-21.92L182.76-21.92L182.76-21.92Q183.33-19.66 183.33-16.09L183.33-16.09L183.33 0zM180.31-16.36L180.31-16.36Q178.09-17.39 175.58-18.14L175.58-18.14L175.58-18.14Q173.07-18.90 170.96-18.90L170.96-18.90L170.96-18.90Q165.51-18.90 165.51-13.45L165.51-13.45L165.51-8.75L165.51-8.75Q165.51-5.24 167.94-3.65L167.94-3.65L167.94-3.65Q170.37-2.05 174.85-2.05L174.85-2.05L174.85-2.05Q177.17-2.05 180.31-2.48L180.31-2.48L180.31-16.36" fill="#8cd0e5" stroke="none" stroke-width="none" transform="translate(-111.86502075195312,14.729178283691414)" style="fill: rgb(255, 246, 177);"></path></g><g class="path" style="opacity: 1; transform-origin: 84.05px 1.22918px; animation: 2.27273s linear -0.15s infinite normal forwards running blink-eaacc4c6-3dcd-4a4a-9dea-aa04aecc29ea;"><path d="M204.61-0.32L204.61-0.32Q201.26 0.54 198.13 0.54L198.13 0.54L198.13 0.54Q195.21 0.54 193.27-0.11L193.27-0.11L193.27-0.11Q190.08-1.19 188.65-3.43L188.65-3.43L188.65-3.43Q187.22-5.67 187.22-9.72L187.22-9.72L187.22-16.63L187.22-16.63Q187.22-21.98 190.03-24.76L190.03-24.76L190.03-24.76Q192.83-27.54 197.26-27.54L197.26-27.54L197.26-27.54Q200.77-27.54 204.50-25.81L204.50-25.81L203.63-23.60L203.63-23.60Q200.56-24.84 197.69-24.84L197.69-24.84L197.69-24.84Q194.35-24.84 192.29-22.92L192.29-22.92L192.29-22.92Q190.24-21.01 190.24-16.96L190.24-16.96L190.24-9.13L190.24-9.13Q190.24-5.40 192.48-3.73L192.48-3.73L192.48-3.73Q194.72-2.05 198.45-2.05L198.45-2.05L198.45-2.05Q200.88-2.05 203.96-2.75L203.96-2.75L204.61-0.32" fill="#8cd0e5" stroke="none" stroke-width="none" transform="translate(-111.86502075195312,14.729178283691414)" style="fill: rgb(130, 107, 136);"></path></g><g class="path" style="opacity: 1; transform-origin: 105.705px 1.28418px; animation: 2.27273s linear 0s infinite normal forwards running blink-eaacc4c6-3dcd-4a4a-9dea-aa04aecc29ea;"><path d="M225.94-1.89L225.94-1.89Q223.99-0.65 221.51 0L221.51 0L221.51 0Q219.02 0.65 216.54 0.65L216.54 0.65L216.54 0.65Q212.54 0.65 210.19-1.32L210.19-1.32L210.19-1.32Q207.85-3.29 207.85-7.24L207.85-7.24L207.85-18.31L207.85-18.31Q207.85-22.68 210.57-25.11L210.57-25.11L210.57-25.11Q213.30-27.54 217.78-27.54L217.78-27.54L217.78-27.54Q222.26-27.54 224.77-25.14L224.77-25.14L224.77-25.14Q227.29-22.73 227.29-18.47L227.29-18.47L227.29-11.45L210.87-10.53L210.87-7.24L210.87-7.24Q210.87-4.64 212.54-3.35L212.54-3.35L212.54-3.35Q214.22-2.05 216.92-2.05L216.92-2.05L216.92-2.05Q220.70-2.05 224.75-4.21L224.75-4.21L225.94-1.89zM224.26-18.85L224.26-18.85Q224.26-22.19 222.16-23.57L222.16-23.57L222.16-23.57Q220.05-24.95 217.73-24.95L217.73-24.95L217.73-24.95Q214.76-24.95 212.81-23.33L212.81-23.33L212.81-23.33Q210.87-21.71 210.87-18.25L210.87-18.25L210.87-13.50L224.26-14.15L224.26-18.85" fill="#8cd0e5" stroke="none" stroke-width="none" transform="translate(-111.86502075195312,14.729178283691414)" style="fill: rgb(222, 120, 106);"></path></g></g>
</g>
</g>
<style id="blink-eaacc4c6-3dcd-4a4a-9dea-aa04aecc29ea" data-anikit="">@keyframes blink-eaacc4c6-3dcd-4a4a-9dea-aa04aecc29ea {
  0% { opacity: 1; }
  49.75% { opacity: 1; }
  50.25% { opacity: 0; }
  99.5% { opacity: 0; }
  100% { opacity: 1; }
}</style></svg>